<svg width="23" height="16" viewBox="0 0 23 16" fill="none" xmlns="http://www.w3.org/2000/svg">
<path fill-rule="evenodd" clip-rule="evenodd" d="M21.7957 2.47627C21.5397 1.50152 20.7853 0.733943 19.8275 0.473437C18.0916 0 11.1304 0 11.1304 0C11.1304 0 4.16923 0 2.43327 0.473437C1.47542 0.733943 0.721075 1.50152 0.465075 2.47627C0 4.2429 0 7.92899 0 7.92899C0 7.92899 0 11.6149 0.465075 13.3817C0.721075 14.3565 1.47542 15.124 2.43327 15.3847C4.16923 15.858 11.1304 15.858 11.1304 15.858C11.1304 15.858 18.0916 15.858 19.8275 15.3847C20.7853 15.124 21.5397 14.3565 21.7957 13.3817C22.2609 11.6149 22.2609 7.92899 22.2609 7.92899C22.2609 7.92899 22.2609 4.2429 21.7957 2.47627Z" fill="#0F001A"/>
<path fill-rule="evenodd" clip-rule="evenodd" d="M9.0437 11.7211V4.82629L14.6089 8.27381L9.0437 11.7211Z" fill="white"/>
</svg>
