<svg width="16" height="16" viewBox="0 0 16 16" fill="none" xmlns="http://www.w3.org/2000/svg">
<path fill-rule="evenodd" clip-rule="evenodd" d="M8.00067 0C5.828 0 5.55533 0.00941568 4.702 0.0479043C3.85033 0.0865581 3.269 0.220195 2.76033 0.416272C2.23417 0.618792 1.78783 0.889699 1.34317 1.33058C0.898167 1.7713 0.624833 2.21367 0.419833 2.73501C0.2215 3.23932 0.0865 3.81566 0.0481667 4.65944C0.01 5.5052 0 5.77561 0 7.92899C0 10.0824 0.00966667 10.3518 0.0483333 11.1975C0.0875 12.0417 0.222333 12.6178 0.42 13.122C0.6245 13.6435 0.897833 14.0858 1.34267 14.5266C1.78717 14.9676 2.2335 15.2392 2.75933 15.4417C3.26833 15.6378 3.84983 15.7714 4.70133 15.8101C5.55467 15.8486 5.82717 15.858 7.99967 15.858C10.1725 15.858 10.4443 15.8486 11.2977 15.8101C12.1493 15.7714 12.7313 15.6378 13.2403 15.4417C13.7663 15.2392 14.212 14.9676 14.6565 14.5266C15.1015 14.0858 15.3748 13.6435 15.5798 13.1221C15.7765 12.6178 15.9115 12.0415 15.9515 11.1977C15.9898 10.352 15.9998 10.0824 15.9998 7.92899C15.9998 5.77561 15.9898 5.50536 15.9515 4.6596C15.9115 3.8155 15.7765 3.23932 15.5798 2.73517C15.3748 2.21367 15.1015 1.7713 14.6565 1.33058C14.2115 0.889534 13.7665 0.618626 13.2398 0.416272C12.7298 0.220195 12.1482 0.0865581 11.2965 0.0479043C10.4432 0.00941568 10.1715 0 7.99817 0H8.00067ZM7.28329 1.42892C7.49629 1.42859 7.73396 1.42892 8.00096 1.42892C10.137 1.42892 10.3901 1.43652 11.2336 1.47451C12.0136 1.50986 12.437 1.63904 12.719 1.74757C13.0923 1.89128 13.3585 2.06308 13.6383 2.34059C13.9183 2.61811 14.0916 2.88241 14.237 3.25243C14.3465 3.53159 14.477 3.95117 14.5125 4.72424C14.5508 5.56009 14.5591 5.81118 14.5591 7.92723C14.5591 10.0433 14.5508 10.2944 14.5125 11.1302C14.4768 11.9033 14.3465 12.3229 14.237 12.602C14.092 12.972 13.9183 13.2355 13.6383 13.5129C13.3583 13.7904 13.0925 13.9622 12.719 14.1059C12.4373 14.2149 12.0136 14.3438 11.2336 14.3791C10.3903 14.4171 10.137 14.4254 8.00096 14.4254C5.86479 14.4254 5.61163 14.4171 4.76829 14.3791C3.98829 14.3434 3.56496 14.2143 3.28279 14.1057C2.90946 13.962 2.64279 13.7902 2.36279 13.5127C2.08279 13.2352 1.90946 12.9715 1.76413 12.6014C1.65463 12.3222 1.52413 11.9026 1.48863 11.1295C1.45029 10.2937 1.44263 10.0426 1.44263 7.92524C1.44263 5.80787 1.45029 5.55811 1.48863 4.72226C1.52429 3.94919 1.65463 3.52961 1.76413 3.25011C1.90913 2.88009 2.08279 2.61579 2.36279 2.33828C2.64279 2.06076 2.90946 1.88897 3.28279 1.74493C3.56479 1.6359 3.98829 1.50706 4.76829 1.47154C5.50629 1.4385 5.79229 1.42859 7.28329 1.42694V1.42892ZM12.271 2.74543C11.741 2.74543 11.311 3.17112 11.311 3.69658C11.311 4.22187 11.741 4.64806 12.271 4.64806C12.801 4.64806 13.231 4.22187 13.231 3.69658C13.231 3.17128 12.801 2.7451 12.271 2.7451V2.74543ZM8.00067 3.85724C5.73183 3.85724 3.89233 5.68042 3.89233 7.92911C3.89233 10.1778 5.73183 12.0002 8.00067 12.0002C10.2695 12.0002 12.1083 10.1778 12.1083 7.92911C12.1083 5.68042 10.2693 3.85724 8.0005 3.85724H8.00067ZM8.00065 5.28618C9.47332 5.28618 10.6673 6.46941 10.6673 7.92917C10.6673 9.38877 9.47332 10.5722 8.00065 10.5722C6.52782 10.5722 5.33398 9.38877 5.33398 7.92917C5.33398 6.46941 6.52782 5.28618 8.00065 5.28618Z" fill="#0F001A"/>
</svg>
