<svg width="20" height="16" viewBox="0 0 20 16" fill="none" xmlns="http://www.w3.org/2000/svg">
<path fill-rule="evenodd" clip-rule="evenodd" d="M9.93421 4.21847L9.97617 4.90437L9.2767 4.82038C6.73059 4.49843 4.50625 3.40659 2.61765 1.57285L1.69434 0.662977L1.45652 1.33488C0.952891 2.83267 1.27465 4.41444 2.32387 5.47829C2.88345 6.06621 2.75755 6.1502 1.79227 5.80024C1.45652 5.68826 1.16273 5.60427 1.13476 5.64627C1.03683 5.74425 1.37258 7.01807 1.63838 7.522C2.00211 8.2219 2.74356 8.9078 3.55495 9.31374L4.24044 9.6357L3.42905 9.6497C2.64563 9.6497 2.61765 9.66369 2.70159 9.95765C2.98138 10.8675 4.08656 11.8334 5.31764 12.2533L6.185 12.5473L5.42956 12.9952C4.31039 13.6391 2.99537 14.0031 1.68035 14.0311C1.05082 14.0451 0.533203 14.1011 0.533203 14.1431C0.533203 14.283 2.23993 15.0669 3.23319 15.3749C6.21298 16.2847 9.75234 15.8928 12.4104 14.339C14.299 13.2332 16.1876 11.0355 17.0689 8.9078C17.5445 7.77396 18.0202 5.70226 18.0202 4.7084C18.0202 4.06449 18.0622 3.9805 18.8456 3.21061C19.3072 2.76268 19.7409 2.27275 19.8248 2.13277C19.9647 1.86681 19.9508 1.86681 19.2373 2.10477C18.0482 2.52471 17.8803 2.46872 18.4679 1.83881C18.9015 1.39087 19.4191 0.578989 19.4191 0.341023C19.4191 0.299029 19.2093 0.369019 18.9715 0.495001C18.7197 0.634981 18.1601 0.844951 17.7404 0.970933L16.985 1.2089L16.2995 0.746965C15.9217 0.495001 15.3901 0.215041 15.1104 0.131053C14.3969 -0.0649192 13.3057 -0.0369232 12.6622 0.187045C10.9135 0.816955 9.8083 2.44072 9.93421 4.21847Z" fill="#0F001A"/>
</svg>
