<svg width="47" height="48" fill="none" xmlns="http://www.w3.org/2000/svg"><rect x=".643" width="46" height="48" rx="10" fill="#E0EAFF"/><path d="M32.643 14.5h-18a.5.5 0 00-.5.5v11h19V15a.5.5 0 00-.5-.5z" stroke="#4883FF"/><path d="M35.143 26.118a.5.5 0 00.5-.5V14.5a2.503 2.503 0 00-2.5-2.5h-19a2.503 2.503 0 00-2.5 2.5v14a2.503 2.503 0 002.5 2.5h5.5v2.233l-1.278.85a.5.5 0 00-.222.417v.5a1 1 0 001 1h9a1 1 0 001-1v-.5a.5.5 0 00-.223-.416l-1.277-.852v-2.144a.5.5 0 10-1 0V33.5a.5.5 0 00.222.416l1.278.852V35h-9v-.233l1.277-.85a.5.5 0 00.223-.417V31h12.5a2.503 2.503 0 002.5-2.5V26a.5.5 0 00-.5-.5H12.525a.5.5 0 100 1h22.118v2a1.5 1.5 0 01-1.5 1.5h-19a1.5 1.5 0 01-1.5-1.5v-14a1.5 1.5 0 011.5-1.5h19a1.5 1.5 0 011.5 1.5v11.118a.5.5 0 00.5.5z" fill="#4883FF" stroke="#4883FF" stroke-width=".4"/><path d="M21.496 16.352a.5.5 0 00-.707 0l-3 3a.5.5 0 000 .707l3 3a.5.5 0 00.707-.707l-2.646-2.646 2.646-2.647a.5.5 0 000-.707zm4.294 6.708a.5.5 0 00.706 0l3-3a.5.5 0 000-.708l-3-3a.5.5 0 10-.707.707l2.647 2.647-2.647 2.646a.5.5 0 000 .707z" fill="#4883FF"/></svg>