<svg width="49" height="48" fill="none" xmlns="http://www.w3.org/2000/svg"><rect x=".643" width="47.714" height="48" rx="10" fill="#FCE7F6"/><path d="M12.268 12c-.345 0-.625.261-.625.583v22.385A1.031 1.031 0 0012.674 36h24.058c.345 0 .625-.261.625-.583 0-.323-.28-.584-.625-.584h-21.84a2 2 0 01-2-2v-20.25c0-.322-.279-.583-.624-.583z" fill="#C11574"/><path fill-rule="evenodd" clip-rule="evenodd" d="M17.268 27.148c-1.13-.012-2.12.707-2.386 1.733-.264 1.027.267 2.088 1.28 2.557 1.013.47 2.239.224 2.955-.593a2.147 2.147 0 00.039-2.822l2.925-4.002c.254.08.52.124.788.128a2.482 2.482 0 001.8-.735l2.6 1.727a2.31 2.31 0 00-.063.513c0 1.238 1.075 2.24 2.4 2.24 1.326 0 2.4-1.002 2.4-2.24a2.107 2.107 0 00-.537-1.388l2.788-3.979c1.135.334 2.36-.167 2.865-1.173.505-1.006.135-2.205-.867-2.806-1-.6-2.323-.417-3.094.43a2.107 2.107 0 00.046 2.92l-2.775 3.92a2.66 2.66 0 00-.863-.152 2.5 2.5 0 00-1.738.688l-2.612-1.703a2.659 2.659 0 000-.455c.05-1.012-.633-1.93-1.667-2.24-1.035-.308-2.162.07-2.75.923-.587.852-.488 1.966.241 2.717l-2.887 3.955a2.485 2.485 0 00-.888-.163zm17.689-10.046c.635 0 1.15.48 1.15 1.073s-.515 1.074-1.15 1.074c-.635 0-1.15-.48-1.15-1.073s.515-1.074 1.15-1.074zm-4.238 8.552c0-.593-.515-1.073-1.15-1.073-.635 0-1.15.48-1.15 1.073s.515 1.074 1.15 1.074c.635 0 1.15-.48 1.15-1.074zm-7.85-4.818c.635 0 1.15.48 1.15 1.073s-.515 1.074-1.15 1.074c-.636 0-1.15-.481-1.15-1.074 0-.593.514-1.073 1.15-1.073zm-6.666 8.957c.177.404.598.668 1.065.668.626 0 1.137-.466 1.15-1.05.01-.436-.263-.834-.692-1.008a1.212 1.212 0 00-1.262.218 1.022 1.022 0 00-.26 1.172z" fill="#C11574"/></svg>