<svg width="49" height="48" fill="none" xmlns="http://www.w3.org/2000/svg"><rect x=".643" width="48" height="48" rx="10" fill="#EDFFF9"/><path d="M12.076 28.308a.424.424 0 01-.433-.413V13.24c0-.684.583-1.241 1.3-1.241h23.4c.717 0 1.3.557 1.3 1.241v4.065a.424.424 0 01-.434.414.424.424 0 01-.433-.414V13.24a.425.425 0 00-.433-.413h-23.4a.425.425 0 00-.434.413v14.654a.424.424 0 01-.433.413zM24.643 36h-4.767a.424.424 0 01-.433-.414c0-.228.194-.414.433-.414h.867c.717 0 1.3-.557 1.3-1.241v-2.069c0-.228.194-.414.433-.414.24 0 .434.186.434.414v2.069a2 2 0 01-.435 1.241h2.168c.24 0 .433.186.433.414a.424.424 0 01-.433.414z" fill="#4AC8AE" stroke="#4AC8AE" stroke-width=".6"/><path d="M25.654 31.862H12.943c-.717 0-1.3-.557-1.3-1.241v-2.483c0-.229.194-.414.433-.414h13.578c.24 0 .433.186.433.414a.424.424 0 01-.433.414H12.509v2.069c0 .227.195.414.434.414h12.71c.24 0 .434.185.434.413a.424.424 0 01-.433.414zm3.756-14.069h4.333a.424.424 0 00.433-.414.424.424 0 00-.433-.413h-4.334a.424.424 0 00-.433.413c0 .229.194.414.433.414zm1.733 16.552h.867a.424.424 0 00.433-.414.424.424 0 00-.433-.414h-.867a.424.424 0 00-.434.414c0 .228.195.414.434.414z" fill="#4AC8AE" stroke="#4AC8AE" stroke-width=".6"/><path fill-rule="evenodd" clip-rule="evenodd" d="M27.676 36h7.8c1.195 0 2.167-.928 2.167-2.069V17.379c0-1.141-.972-2.069-2.167-2.069h-7.8c-1.195 0-2.166.928-2.166 2.07v16.55c0 1.141.971 2.069 2.166 2.069zm-1.3-18.62c0-.685.583-1.242 1.3-1.242h7.8c.717 0 1.3.557 1.3 1.241v16.552c0 .684-.583 1.241-1.3 1.241h-7.8c-.716 0-1.3-.557-1.3-1.241V17.379z" fill="#4AC8AE"/><path d="M35.476 35.7h-7.8v.6h7.8v-.6zm1.867-1.769c0 .963-.824 1.769-1.867 1.769v.6c1.348 0 2.467-1.05 2.467-2.369h-.6zm0-16.552v16.552h.6V17.379h-.6zm-1.867-1.769c1.043 0 1.867.807 1.867 1.77h.6c0-1.32-1.12-2.37-2.467-2.37v.6zm-7.8 0h7.8v-.6h-7.8v.6zm-1.866 1.77c0-.963.824-1.77 1.866-1.77v-.6c-1.347 0-2.466 1.05-2.466 2.37h.6zm0 16.551V17.379h-.6v16.552h.6zm1.866 1.769c-1.042 0-1.866-.806-1.866-1.769h-.6c0 1.32 1.119 2.369 2.466 2.369v-.6zm0-19.862c-.869 0-1.6.678-1.6 1.541h.6c0-.506.436-.941 1-.941v-.6zm7.8 0h-7.8v.6h7.8v-.6zm1.6 1.541c0-.863-.73-1.541-1.6-1.541v.6c.564 0 1 .435 1 .941h.6zm0 16.552V17.379h-.6v16.552h.6zm-1.6 1.541c.87 0 1.6-.678 1.6-1.541h-.6c0 .506-.436.941-1 .941v.6zm-7.8 0h7.8v-.6h-7.8v.6zm-1.6-1.541c0 .863.731 1.541 1.6 1.541v-.6c-.564 0-1-.435-1-.941h-.6zm0-16.552v16.552h.6V17.379h-.6z" fill="#4AC8AE"/></svg>