<svg width="154" height="154" fill="none" xmlns="http://www.w3.org/2000/svg"><g opacity=".05" fill="#0F001A"><circle cx="5" cy="5" r="5"/><circle cx="5" cy="33.688" r="5"/><circle cx="5" cy="62.375" r="5"/><circle cx="5" cy="91.063" r="5"/><circle cx="5" cy="119.75" r="5"/><circle cx="5" cy="148.438" r="5"/><circle cx="33.688" cy="5" r="5"/><circle cx="33.688" cy="33.688" r="5"/><circle cx="33.688" cy="62.375" r="5"/><circle cx="33.688" cy="91.063" r="5"/><circle cx="33.688" cy="119.75" r="5"/><circle cx="33.688" cy="148.438" r="5"/><circle cx="62.375" cy="5" r="5"/><circle cx="62.375" cy="33.688" r="5"/><circle cx="62.375" cy="62.375" r="5"/><circle cx="62.375" cy="91.063" r="5"/><circle cx="62.375" cy="119.75" r="5"/><circle cx="62.375" cy="148.438" r="5"/><circle cx="91.063" cy="5" r="5"/><circle cx="119.75" cy="5" r="5"/><circle cx="148.438" cy="5" r="5"/><circle cx="91.063" cy="33.688" r="5"/><circle cx="119.75" cy="33.688" r="5"/><circle cx="148.438" cy="33.688" r="5"/><circle cx="91.063" cy="62.375" r="5"/><circle cx="119.75" cy="62.375" r="5"/><circle cx="148.438" cy="62.375" r="5"/><circle cx="91.063" cy="91.063" r="5"/><circle cx="91.063" cy="119.75" r="5"/><circle cx="91.063" cy="148.438" r="5"/><circle cx="119.75" cy="91.063" r="5"/><circle cx="119.75" cy="119.75" r="5"/><circle cx="119.75" cy="148.438" r="5"/><circle cx="148.438" cy="91.063" r="5"/><circle cx="148.438" cy="119.75" r="5"/><circle cx="148.438" cy="148.438" r="5"/></g></svg>