<svg width="20" height="20" viewBox="0 0 20 20" fill="none" xmlns="http://www.w3.org/2000/svg">
<path d="M12.4999 3.33337C11.6159 3.33337 10.768 3.68456 10.1429 4.30968C9.51777 4.93481 9.16658 5.78265 9.16658 6.66671C9.16658 7.55076 9.51777 8.39861 10.1429 9.02373C10.768 9.64885 11.6159 10 12.4999 10C13.384 10 14.2318 9.64885 14.8569 9.02373C15.4821 8.39861 15.8333 7.55076 15.8333 6.66671C15.8333 5.78265 15.4821 4.93481 14.8569 4.30968C14.2318 3.68456 13.384 3.33337 12.4999 3.33337ZM12.4999 4.91671C12.7297 4.91671 12.9573 4.96197 13.1696 5.04992C13.3819 5.13786 13.5749 5.26677 13.7374 5.42927C13.8999 5.59177 14.0288 5.78469 14.1167 5.99701C14.2047 6.20933 14.2499 6.43689 14.2499 6.66671C14.2499 6.89652 14.2047 7.12408 14.1167 7.3364C14.0288 7.54872 13.8999 7.74164 13.7374 7.90414C13.5749 8.06665 13.3819 8.19555 13.1696 8.2835C12.9573 8.37144 12.7297 8.41671 12.4999 8.41671C12.2701 8.41671 12.0425 8.37144 11.8302 8.2835C11.6179 8.19555 11.425 8.06665 11.2625 7.90414C11.1 7.74164 10.9711 7.54872 10.8831 7.3364C10.7952 7.12408 10.7499 6.89652 10.7499 6.66671C10.7499 6.20258 10.9343 5.75746 11.2625 5.42927C11.5907 5.10108 12.0358 4.91671 12.4999 4.91671ZM3.33325 5.83337V8.33337H0.833252V10H3.33325V12.5H4.99992V10H7.49992V8.33337H4.99992V5.83337H3.33325ZM12.4999 10.8334C10.2749 10.8334 5.83325 11.9417 5.83325 14.1667V16.6667H19.1666V14.1667C19.1666 11.9417 14.7249 10.8334 12.4999 10.8334ZM12.4999 12.4167C14.9749 12.4167 17.5833 13.6334 17.5833 14.1667V15.0834H7.41658V14.1667C7.41658 13.6334 9.99992 12.4167 12.4999 12.4167Z" fill="#101828"/>
</svg>
