<svg width="20" height="20" viewBox="0 0 20 20" fill="none" xmlns="http://www.w3.org/2000/svg">
<path d="M6.66675 12.5H13.3334V12.0417C13.3334 11.4167 13.0279 10.9203 12.4167 10.5525C11.8056 10.1847 11.0001 10.0006 10.0001 10C9.00008 10 8.19453 10.1842 7.58341 10.5525C6.9723 10.9208 6.66675 11.4172 6.66675 12.0417V12.5ZM10.0001 9.16667C10.4584 9.16667 10.8509 9.00361 11.1776 8.6775C11.5042 8.35139 11.6673 7.95889 11.6667 7.5C11.6667 7.04167 11.5037 6.64944 11.1776 6.32333C10.8515 5.99722 10.459 5.83389 10.0001 5.83333C9.54175 5.83333 9.14953 5.99667 8.82341 6.32333C8.4973 6.65 8.33397 7.04222 8.33341 7.5C8.33341 7.95833 8.49675 8.35083 8.82341 8.6775C9.15008 9.00417 9.5423 9.16722 10.0001 9.16667ZM3.33341 15.8333C2.87508 15.8333 2.48286 15.6703 2.15675 15.3442C1.83064 15.0181 1.6673 14.6256 1.66675 14.1667V4.16667C1.66675 3.70833 1.83008 3.31611 2.15675 2.99C2.48341 2.66389 2.87564 2.50056 3.33341 2.5H16.6667C17.1251 2.5 17.5176 2.66333 17.8442 2.99C18.1709 3.31667 18.334 3.70889 18.3334 4.16667V14.1667C18.3334 14.625 18.1704 15.0175 17.8442 15.3442C17.5181 15.6708 17.1256 15.8339 16.6667 15.8333H13.3334V16.6667C13.3334 16.9028 13.2534 17.1008 13.0934 17.2608C12.9334 17.4208 12.7356 17.5006 12.5001 17.5H7.50008C7.26397 17.5 7.06619 17.42 6.90675 17.26C6.7473 17.1 6.6673 16.9022 6.66675 16.6667V15.8333H3.33341Z" fill="#101828"/>
</svg>
