<svg width="126" height="126" fill="none" xmlns="http://www.w3.org/2000/svg"><g filter="url(#filter0_d_1_141)"><rect x="38.36" y="19.94" width="48.96" height="48.96" rx="12.24" fill="#20B486"/><g clip-path="url(#clip0_1_141)" fill="#fff"><path d="M65.7 54.35h-6.3l-.75-2.025H47.325V33.05c0-.9.75-1.65 1.65-1.65h28.05c.9 0 1.65.75 1.65 1.65V52.4H67.2l-1.5 1.95zm-5.475-1.125h4.95l1.5-2.025H77.55V33.05c0-.3-.225-.525-.525-.525h-28.05c-.3 0-.525.225-.525.525v18.225h11.025l.75 1.95z"/><path d="M75.6 56.6H50.4a4.865 4.865 0 01-4.875-4.875v-.6H59.4l.75 2.025h4.95l1.5-2.025h13.8v.6c.075 2.7-2.175 4.875-4.8 4.875zm-28.875-4.275c.3 1.8 1.8 3.15 3.675 3.15h25.125c1.875 0 3.45-1.35 3.675-3.15h-12l-1.5 2.025h-6.3l-.75-2.025H46.725zm10.8-16.95H51.75V40.4h5.775v-5.025z"/><path d="M58.05 40.925h-6.9v-6.15h6.9v6.15zM52.275 39.8h4.65v-3.9h-4.65v3.9zm5.25 3.525H51.75v5.025h5.775v-5.025z"/><path d="M58.05 48.95h-6.9V42.8h6.9v6.15zm-5.775-1.125h4.65v-3.9h-4.65v3.9zM74.55 37.25H61.125v1.125H74.55V37.25zm0 8.025H61.125V46.4H74.55v-1.125z"/></g></g><defs><clipPath id="clip0_1_141"><path fill="#fff" transform="translate(45 26)" d="M0 0h36v36H0z"/></clipPath><filter id="filter0_d_1_141" x=".11" y=".05" width="125.46" height="125.46" filterUnits="userSpaceOnUse" color-interpolation-filters="sRGB"><feFlood flood-opacity="0" result="BackgroundImageFix"/><feColorMatrix in="SourceAlpha" values="0 0 0 0 0 0 0 0 0 0 0 0 0 0 0 0 0 0 127 0" result="hardAlpha"/><feOffset dy="18.36"/><feGaussianBlur stdDeviation="19.125"/><feComposite in2="hardAlpha" operator="out"/><feColorMatrix values="0 0 0 0 0.0509804 0 0 0 0 0.0470588 0 0 0 0 0.219608 0 0 0 0.15 0"/><feBlend in2="BackgroundImageFix" result="effect1_dropShadow_1_141"/><feBlend in="SourceGraphic" in2="effect1_dropShadow_1_141" result="shape"/></filter></defs></svg>