<svg width="32" height="32" fill="none" xmlns="http://www.w3.org/2000/svg"><path d="M21.273.63c-5.88-.895-11.404 2.93-12.59 8.712-.21 1.033-.528 1.87-.967 2.557-.04.062-.074.127-.105.194l-2.13 4.74a1.501 1.501 0 001.284 2.113l2.427.138v2.676a2.409 2.409 0 002.405 2.406h1.372v3.2a1.5 1.5 0 001.5 1.5h10.048a1.5 1.5 0 001.5-1.5c0-2.612.825-6.573 2.665-9.538l.002-.003c1.684-2.456 2.294-5.449 1.717-8.436-.877-4.54-4.546-8.06-9.128-8.76zm4.912 15.534a1.591 1.591 0 00-.069.109c-1.634 2.644-2.765 6.266-3.036 9.593h-7.11V23.57a2.409 2.409 0 00-2.407-2.405h-1.371v-2.644c0-1.274-.997-2.33-2.27-2.402l-.81-.046 1.193-2.656c.61-.981 1.041-2.119 1.319-3.474.864-4.215 4.911-7.005 9.196-6.348 3.28.5 6.007 3.116 6.635 6.361.426 2.208-.025 4.412-1.27 6.207zM4.588 23.4a4.903 4.903 0 004.898 4.898 1.5 1.5 0 000-3A1.9 1.9 0 017.588 23.4a1.5 1.5 0 00-3 0z" fill="#F1BF5A"/><path d="M2.887 23.23a1.5 1.5 0 00-1.5 1.5 6.777 6.777 0 006.768 6.77 1.5 1.5 0 000-3 3.773 3.773 0 01-3.768-3.77 1.5 1.5 0 00-1.5-1.5z" fill="#F1BF5A"/></svg>