<svg width="36" height="36" fill="none" xmlns="http://www.w3.org/2000/svg"><g clip-path="url(#clip0_1_143)" fill="#fff"><path d="M20.7 28.35h-6.3l-.75-2.025H2.325V7.05c0-.9.75-1.65 1.65-1.65h28.05c.9 0 1.65.75 1.65 1.65V26.4H22.2l-1.5 1.95zm-5.475-1.125h4.95l1.5-2.025H32.55V7.05c0-.3-.225-.525-.525-.525H3.975c-.3 0-.525.225-.525.525v18.225h11.025l.75 1.95z"/><path d="M30.6 30.6H5.4a4.865 4.865 0 01-4.875-4.875v-.6H14.4l.75 2.025h4.95l1.5-2.025h13.8v.6c.075 2.7-2.175 4.875-4.8 4.875zM1.725 26.325c.3 1.8 1.8 3.15 3.675 3.15h25.125c1.875 0 3.45-1.35 3.675-3.15h-12l-1.5 2.025h-6.3l-.75-2.025H1.725zm10.8-16.95H6.75V14.4h5.775V9.375z"/><path d="M13.05 14.925h-6.9v-6.15h6.9v6.15zM7.275 13.8h4.65V9.9h-4.65v3.9zm5.25 3.525H6.75v5.025h5.775v-5.025z"/><path d="M13.05 22.95h-6.9V16.8h6.9v6.15zm-5.775-1.125h4.65v-3.9h-4.65v3.9zM29.55 11.25H16.125v1.125H29.55V11.25zm0 8.025H16.125V20.4H29.55v-1.125z"/></g><defs><clipPath id="clip0_1_143"><path fill="#fff" d="M0 0h36v36H0z"/></clipPath></defs></svg>