<svg width="28" height="28" fill="none" xmlns="http://www.w3.org/2000/svg"><path d="M15 2V1a1 1 0 00-2 0v1a1 1 0 002 0zM5.51 4.1A1 1 0 004.1 5.51l.71.71a1 1 0 001.41-1.41l-.71-.71zM2 15a1 1 0 000-2H1a1 1 0 000 2h1zm2.1 8.9a1 1 0 001.41 0l.71-.71a1 1 0 00-1.41-1.41l-.71.71a1 1 0 000 1.41zm19.09-2.12a1 1 0 00-1.41 1.41l.71.71a1 1 0 001.41-1.41l-.71-.71zM27 13h-1a1 1 0 000 2h1a1 1 0 000-2zm-3.1-8.9a1 1 0 00-1.41 0l-.71.71a1 1 0 101.41 1.41l.71-.71a1 1 0 000-1.41zM5 14a9 9 0 004 7.47V27a1 1 0 001 1h8a1 1 0 001-1v-5.53A9 9 0 105 14zm6 12v-2h6v2h-6zm3-19a7 7 0 013.5 13.06 1 1 0 00-.5.87V22h-2v-6h2a1 1 0 000-2h-6a1 1 0 000 2h2v6h-2v-1.08a1 1 0 00-.5-.87A7 7 0 0114 7z" fill="#B4708D"/></svg>