<svg width="126" height="126" fill="none" xmlns="http://www.w3.org/2000/svg"><g filter="url(#filter0_d_1_156)"><rect x="38.36" y="20.36" width="48.96" height="48.96" rx="12.24" fill="#20B486"/><g clip-path="url(#clip0_1_156)" fill="#F5F5F4"><path d="M75.271 50.259h-1.083v-.957h1.083c.765 0 1.403-.637 1.403-1.402v-6.694c0-1.211-1.02-2.231-2.231-2.231H67.43c-1.211 0-2.231 1.02-2.231 2.231V47.9c0 .765.637 1.402 1.402 1.402h1.084v.957h-1.084a2.353 2.353 0 01-2.358-2.36v-6.693a3.157 3.157 0 013.187-3.187h7.076a3.157 3.157 0 013.188 3.187V47.9c0 1.339-1.084 2.359-2.423 2.359zm-4.335-13.26c-1.912 0-3.506-1.594-3.506-3.507 0-1.912 1.594-3.506 3.506-3.506 1.913 0 3.507 1.594 3.507 3.506A3.496 3.496 0 0170.936 37zm0-5.993a2.557 2.557 0 00-2.55 2.55 2.557 2.557 0 002.55 2.55 2.557 2.557 0 002.55-2.55 2.557 2.557 0 00-2.55-2.55z"/><path d="M72.594 59.694c-.638 0-1.212-.32-1.594-.766-.382.447-.956.766-1.594.766a2.122 2.122 0 01-2.104-2.104V42.035h.957V57.59c0 .637.51 1.147 1.147 1.147.638 0 1.084-.574 1.084-1.147v-7.778h.956v7.778c0 .637.51 1.147 1.148 1.147.637 0 1.147-.51 1.147-1.147V42.035h.957V57.59a2.122 2.122 0 01-2.104 2.103zm-6.885-6.63H48.05V33.046h17.978v.956H49.006v18.105H65.71v.957z"/><path d="M62.585 41.971H51.62v.956h10.965v-.956zm0 3.251H51.62v.957h10.965v-.957zm0 3.315H51.62v.957h10.965v-.957z"/></g></g><defs><clipPath id="clip0_1_156"><path fill="#fff" transform="translate(47.54 29.54)" d="M0 0h30.6v30.6H0z"/></clipPath><filter id="filter0_d_1_156" x=".11" y=".47" width="125.46" height="125.46" filterUnits="userSpaceOnUse" color-interpolation-filters="sRGB"><feFlood flood-opacity="0" result="BackgroundImageFix"/><feColorMatrix in="SourceAlpha" values="0 0 0 0 0 0 0 0 0 0 0 0 0 0 0 0 0 0 127 0" result="hardAlpha"/><feOffset dy="18.36"/><feGaussianBlur stdDeviation="19.125"/><feComposite in2="hardAlpha" operator="out"/><feColorMatrix values="0 0 0 0 0.0509804 0 0 0 0 0.0470588 0 0 0 0 0.219608 0 0 0 0.15 0"/><feBlend in2="BackgroundImageFix" result="effect1_dropShadow_1_156"/><feBlend in="SourceGraphic" in2="effect1_dropShadow_1_156" result="shape"/></filter></defs></svg>