<svg width="32" height="32" fill="none" xmlns="http://www.w3.org/2000/svg"><g clip-path="url(#clip0_1_158)" fill="#F5F5F4"><path d="M28.271 21.259h-1.083v-.957h1.083c.765 0 1.403-.637 1.403-1.402v-6.694c0-1.211-1.02-2.231-2.231-2.231H20.43c-1.211 0-2.231 1.02-2.231 2.231V18.9c0 .765.637 1.402 1.402 1.402h1.084v.957h-1.084a2.353 2.353 0 01-2.358-2.36v-6.693A3.157 3.157 0 0120.43 9.02h7.076a3.157 3.157 0 013.188 3.187V18.9c0 1.339-1.084 2.359-2.423 2.359zm-4.335-13.26c-1.912 0-3.506-1.594-3.506-3.507 0-1.912 1.594-3.506 3.506-3.506 1.913 0 3.507 1.594 3.507 3.506A3.496 3.496 0 0123.936 8zm0-5.993a2.557 2.557 0 00-2.55 2.55 2.557 2.557 0 002.55 2.55 2.557 2.557 0 002.55-2.55 2.557 2.557 0 00-2.55-2.55z"/><path d="M25.594 30.694c-.638 0-1.212-.32-1.594-.765-.383.446-.956.765-1.594.765a2.122 2.122 0 01-2.104-2.104V13.035h.957V28.59c0 .637.51 1.147 1.147 1.147.638 0 1.084-.573 1.084-1.147v-7.778h.956v7.778c0 .637.51 1.147 1.148 1.147.637 0 1.147-.51 1.147-1.147V13.035h.957V28.59a2.122 2.122 0 01-2.104 2.104zm-6.885-6.63H1.05V4.046h17.977v.956H2.008v18.105H18.71v.957z"/><path d="M15.585 12.971H4.62v.956h10.965v-.956zm0 3.251H4.62v.957h10.965v-.957zm0 3.315H4.62v.957h10.965v-.957z"/></g><defs><clipPath id="clip0_1_158"><path fill="#fff" transform="translate(.54 .54)" d="M0 0h30.6v30.6H0z"/></clipPath></defs></svg>