<svg width="32" height="32" fill="none" xmlns="http://www.w3.org/2000/svg"><path d="M31.398 9.204c0-1.98-1.61-3.59-3.59-3.59h-3.68v-.48A4.64 4.64 0 0019.493.5h-6.988a4.64 4.64 0 00-4.633 4.634v.48H4.19a3.593 3.593 0 00-3.588 3.59v1.627a8.77 8.77 0 002.05 5.643v9.347a5.685 5.685 0 005.68 5.679h15.335a5.685 5.685 0 005.678-5.679v-9.347a8.77 8.77 0 002.052-5.643V9.204zm-20.525-4.07c0-.9.732-1.634 1.633-1.634h6.988c.9 0 1.633.733 1.633 1.634v.48H10.873v-.48zm-7.27 4.07a.59.59 0 01.588-.59H27.81a.59.59 0 01.588.59v1.627c0 1.552-.614 2.96-1.609 4.004l-.01.01a5.79 5.79 0 01-4.192 1.799h-.74v-.41a1.5 1.5 0 00-3 0v.41h-5.692v-.41a1.5 1.5 0 00-3 0v.41h-.74a5.79 5.79 0 01-4.193-1.799l-.01-.01a5.787 5.787 0 01-1.608-4.004V9.204zM23.667 28.5H8.333a2.682 2.682 0 01-2.68-2.679V18.79a8.743 8.743 0 003.762.855h.739v.41a1.5 1.5 0 003 0v-.41h5.692v.41a1.5 1.5 0 003 0v-.41h.74a8.743 8.743 0 003.76-.855v7.032a2.682 2.682 0 01-2.678 2.679z" fill="#F4876B"/></svg>